<svg xmlns="http://www.w3.org/2000/svg" width="34" height="31" viewBox="0 0 37 34">
  <g id="Group_1" data-name="Group 1" transform="translate(-1455 -204)">
    <g id="Group_11" data-name="Group 11">
      <rect id="Rectangle_2" data-name="Rectangle 2" width="37" height="34" rx="17" transform="translate(1455 204)" fill="#ec0928"/>
      <path id="Icon_awesome-search" data-name="Icon awesome-search" d="M20.528,18l-4.053-4.053a.975.975,0,0,0-.691-.285h-.663a8.451,8.451,0,1,0-1.463,1.463v.663a.975.975,0,0,0,.285.691L18,20.528a.972.972,0,0,0,1.378,0l1.15-1.15A.98.98,0,0,0,20.528,18ZM8.455,13.658a5.2,5.2,0,1,1,5.2-5.2A5.2,5.2,0,0,1,8.455,13.658Z" transform="translate(1463.094 210.936)" fill="#fff"/>
    </g>
  </g>
</svg>
